<svg width="82" height="54" viewBox="0 0 82 54" fill="none" xmlns="http://www.w3.org/2000/svg">
<path d="M76.5384 53.9978H6.24385C4.80975 53.9978 3.43439 53.4288 2.42033 52.4161C1.40627 51.4033 0.836578 50.0298 0.836578 48.5975L0.836578 25.8806H4.73207L5.61075 23.7565H7.57765L8.45407 25.8716H16.1189V24.2628L16.8038 25.8828H20.7827L21.4676 24.2358V25.8783H40.5124V22.4042H40.8729C41.1298 22.4132 41.2041 22.4357 41.2041 22.8632V25.8828H51.0566V25.075C52.0637 25.5858 53.2511 25.8851 54.5105 25.8851L54.7246 25.8828H54.7133H58.8589L59.7466 23.7677H61.7135L62.5809 25.8828H70.5701V23.8712L71.7777 25.8828H78.1673V12.5983H71.8431V14.1666L70.9576 12.5983H64.4554V14.1666L63.642 12.5983H54.862C53.5317 12.5311 52.2063 12.8045 51.0116 13.3926L51.0589 13.3723V12.5983H45.0027V13.3723C44.2697 12.7953 43.3438 12.5193 42.414 12.6005H42.4275H20.296L18.8113 16.0319L17.286 12.6005H10.3151V14.1688L9.54679 12.6005H3.59879L0.843337 18.9008V5.40023C0.843337 3.968 1.41303 2.59443 2.42709 1.58169C3.44115 0.568951 4.81651 0 6.25061 0H76.5452C77.9793 0 79.3546 0.568951 80.3687 1.58169C81.3827 2.59443 81.9524 3.968 81.9524 5.40023V28.9812H77.7325C77.6649 28.9767 77.5838 28.9767 77.5049 28.9767C76.5271 28.9767 75.6192 29.2692 74.8621 29.771L74.8802 29.7597V28.9812H68.6393C67.6643 28.9274 66.6996 29.2041 65.9018 29.7665L65.9154 29.7575V28.979H54.7719V29.7575C53.8596 29.2437 52.8294 28.9754 51.7821 28.979H51.6942H51.6987H44.3471V29.7575C43.3866 29.143 42.2469 28.8696 41.1117 28.9812L41.132 28.979H32.9062L31.0227 31.013L29.2608 28.979H16.9728V42.2725H29.031L30.9709 40.2069L32.7981 42.2725H40.2308V39.1606H41.2672C42.2637 39.1995 43.2576 39.0333 44.1871 38.6724L44.1376 38.6904V42.277H50.2658V38.8141H50.561C50.935 38.8141 50.9733 38.8276 50.9733 39.2056V42.2793H69.5968L69.8244 42.2838C70.8923 42.2838 71.8881 41.9643 72.7173 41.4175L72.697 41.4287V42.2793H78.6044L78.886 42.2838C79.9923 42.2838 81.0445 42.0565 81.9997 41.6447L81.9479 41.665V48.5998C81.9479 50.032 81.3782 51.4056 80.3642 52.4183C79.3501 53.431 77.9748 54 76.5407 54L76.5384 53.9978ZM48.3868 40.4094H46.0932V30.8803H51.3563C52.3068 30.7923 53.264 30.952 54.1343 31.3438L54.0982 31.3303C54.8034 31.7173 55.2743 32.4554 55.2743 33.3014L55.2698 33.4521V33.4454L55.272 33.5309C55.272 34.6244 54.6119 35.565 53.6656 35.9745L53.6476 35.9813C54.1005 36.1433 54.479 36.42 54.7606 36.7778L54.7651 36.7823C55.0832 37.3082 55.2164 37.925 55.1436 38.5351L55.1459 38.5216V40.4072H52.8568V39.2146C52.9652 38.5653 52.8347 37.8988 52.4896 37.3381L52.4963 37.3493C52.2585 37.169 51.9865 37.0388 51.6969 36.9665C51.4072 36.8941 51.1058 36.8812 50.811 36.9285L50.8246 36.9263H48.3868V40.4072V40.4094ZM48.3868 32.8491V34.989H51.158C51.5493 35.0251 51.9432 34.9551 52.298 34.7865L52.2845 34.7932C52.4295 34.6997 52.5487 34.5715 52.6314 34.4201C52.714 34.2688 52.7574 34.0993 52.7577 33.9269L52.7554 33.8752C52.7666 33.7032 52.7287 33.5338 52.6461 33.3825C52.5636 33.2311 52.4398 33.1063 52.289 33.0224L52.2845 33.0201C51.9426 32.8674 51.567 32.8054 51.1941 32.8401H51.2031L48.3868 32.8491ZM28.0532 40.4072H19.0253V30.8803H28.1951L31.0001 34.0034L33.8998 30.8803H41.1838C43.7703 30.8803 45.0275 31.9086 45.0275 34.0192C45.0275 36.168 43.7275 37.2121 41.0622 37.2121H38.2121V40.4049H33.7804L30.9731 37.2571L28.0554 40.4072H28.0532ZM35.941 31.9018L32.4398 35.6595L35.941 39.5386V31.9018ZM21.2986 36.5258V38.4204H26.9041L29.4951 35.6257L27.0033 32.8491H21.2963V34.5817H26.3026V36.5235L21.2986 36.5258ZM38.2121 32.8514V35.277H41.1568C42.058 35.277 42.5762 34.818 42.5762 34.0169C42.5762 33.2519 42.0941 32.8491 41.1816 32.8491L38.2121 32.8514ZM78.8523 40.4117H74.4498V38.3641H78.8342C79.1623 38.4093 79.495 38.3236 79.7602 38.1256L79.758 38.1278C79.8426 38.0494 79.9101 37.9544 79.9563 37.8487C80.0024 37.743 80.0262 37.6289 80.0261 37.5136V37.4776C80.0263 37.3637 80.0016 37.2511 79.9537 37.1477C79.9058 37.0444 79.836 36.9527 79.749 36.879C79.5158 36.7108 79.2282 36.6353 78.9424 36.6675H78.9469L78.5256 36.654C76.4663 36.6 74.1344 36.537 74.1344 33.7177C74.1344 32.3451 74.9951 30.8803 77.4036 30.8803H81.9479V32.9099H77.7911C77.47 32.874 77.1457 32.9384 76.8628 33.0944L76.8718 33.0899C76.7606 33.163 76.6712 33.2647 76.6129 33.3843C76.5546 33.5038 76.5297 33.6369 76.5407 33.7694V33.7672V33.7919C76.5406 33.9435 76.5885 34.0913 76.6776 34.2141C76.7665 34.3369 76.8921 34.4286 77.0363 34.4759L77.0408 34.4782C77.3265 34.5662 77.6255 34.6027 77.924 34.5862H77.9173L79.1542 34.6177C80.0865 34.5248 81.0181 34.802 81.7474 35.3895L81.7406 35.385C81.8082 35.439 81.8668 35.4975 81.9186 35.5627L81.9209 35.565L81.9479 39.1921C81.569 39.6343 81.087 39.9766 80.5444 40.1889C80.0018 40.4012 79.4153 40.4769 78.8365 40.4094L78.8523 40.4117ZM69.955 40.4117H65.5121V38.3641H69.9325C70.2633 38.4073 70.598 38.322 70.8675 38.1256L70.863 38.1278C70.9471 38.0491 71.0142 37.954 71.0599 37.8483C71.1056 37.7426 71.1291 37.6287 71.1289 37.5136V37.4911C71.1288 37.3753 71.104 37.2608 71.0562 37.1553C71.0084 37.0498 70.9387 36.9556 70.8517 36.879C70.6144 36.7106 70.3233 36.6353 70.0339 36.6675H70.0384L69.6193 36.654C67.5668 36.6 65.2372 36.537 65.2372 33.7177C65.2372 32.3451 66.0933 30.8803 68.4973 30.8803H73.0665V32.9099H68.8848C68.566 32.8744 68.2439 32.9388 67.9634 33.0944L67.9724 33.0899C67.854 33.1712 67.7599 33.283 67.6999 33.4133C67.6398 33.5437 67.6162 33.6878 67.6314 33.8305C67.6467 33.9732 67.7002 34.1091 67.7864 34.2239C67.8726 34.3387 67.9882 34.4281 68.1211 34.4827L68.1256 34.4849C68.415 34.5736 68.7178 34.6101 69.02 34.5929H69.0133L70.2412 34.6244C71.1785 34.5342 72.1142 34.8118 72.8502 35.3985L72.8434 35.3917C73.091 35.6643 73.2793 35.9852 73.3964 36.3342C73.5135 36.6831 73.5569 37.0525 73.5238 37.4191V37.4078C73.5306 39.3946 72.3252 40.4072 69.9483 40.4072L69.955 40.4117ZM64.1467 40.4117H56.5315V30.878H64.14V32.8469H58.807V34.5794H64.0161V36.5213H58.807V38.4159L64.1467 38.4249V40.4049V40.4117ZM68.5852 24.0175H63.9417L63.054 21.8934H58.3181L57.4575 24.0175H54.7899C53.5919 24.0806 52.4122 23.7036 51.4734 22.9577L51.4847 22.9645C51.0387 22.4728 50.7002 21.8938 50.4907 21.2643C50.2812 20.6347 50.2054 19.9685 50.2681 19.3081L50.2658 19.3261C50.2078 18.6535 50.2873 17.9761 50.4996 17.3352C50.7118 16.6942 51.0524 16.1031 51.5005 15.5977L51.496 15.6022C51.9691 15.189 52.5223 14.8775 53.1211 14.6871C53.72 14.4966 54.3517 14.4313 54.9769 14.4951L54.9589 14.4929H57.1668V16.5247H55.0039C54.6874 16.484 54.3659 16.5135 54.0621 16.6111C53.7583 16.7087 53.4799 16.8721 53.2466 17.0895L53.2488 17.0872C52.7671 17.7033 52.5333 18.4769 52.5932 19.2563V19.2451C52.5214 20.0458 52.7467 20.845 53.2263 21.4906L53.2195 21.4816C53.6674 21.8472 54.2408 22.0233 54.8169 21.9722H54.8079H55.8308L59.0549 14.4794H62.4795L66.3389 23.4797V14.4794H69.8109L73.8167 21.1126V14.4794H76.1599V24.0018H72.9065L68.5807 16.851V24.0018L68.5852 24.0175ZM60.7018 16.1017L59.1315 19.8998H62.279L60.7018 16.1017ZM38.6244 24.013H36.3443V14.4861H41.5894C42.5468 14.3869 43.5133 14.5494 44.3854 14.9564L44.3516 14.9429C44.7023 15.1365 44.9946 15.4204 45.1982 15.7651C45.4019 16.1097 45.5094 16.5025 45.5097 16.9027L45.5052 17.0602V17.0535V17.1232C45.5053 17.6429 45.3553 18.1516 45.0732 18.5882C44.791 19.0248 44.3887 19.3709 43.9145 19.5848L43.8965 19.5916C44.3493 19.7626 44.7301 20.0371 45.0208 20.3881L45.0253 20.3926C45.3467 20.9204 45.4794 21.5415 45.4015 22.1544L45.4038 22.1409V24.0108H43.1034L43.0944 22.8092V22.6292C43.1763 22.0417 43.0461 21.4443 42.7272 20.9439L42.7339 20.9551C42.4953 20.78 42.2243 20.6539 41.9366 20.584C41.6489 20.5141 41.3502 20.5018 41.0577 20.5479L41.0712 20.5456H38.6267V24.0108L38.6244 24.013ZM38.6244 16.4684V18.5835H41.3911C41.782 18.6259 42.1768 18.5556 42.5289 18.381L42.5176 18.3855C42.662 18.2979 42.7813 18.1747 42.8641 18.0277C42.947 17.8807 42.9906 17.7149 42.9908 17.5462L42.9885 17.4832C43 17.3123 42.9611 17.1439 42.8766 16.9948C42.7921 16.8456 42.6658 16.7245 42.5131 16.6462L42.5086 16.6439C42.1658 16.497 41.7924 16.4353 41.4204 16.4639H41.4272L38.6244 16.4684ZM14.4809 24.013H9.8487L8.97227 21.8889H4.22288L3.33969 24.013H0.861362L4.94611 14.4861H8.33241L12.2099 23.5022V14.4861H15.9296L18.9126 20.9461L21.6546 14.4861H25.4509V24.0085H23.1078L23.1033 16.5562L19.7981 24.0108H17.7974L14.4832 16.5449V24.0108L14.4809 24.013ZM6.58631 16.1017L5.03397 19.8998H8.14766L6.58631 16.1017ZM49.1415 24.0108H46.8164V14.4861H49.1438V24.0085L49.1415 24.0108ZM34.7537 24.0108H27.152V14.4861H34.7672V16.4662H29.432V18.183H34.6388V20.1383H29.4275V22.0419H34.7627V24.0085L34.7537 24.0108Z" fill="#3173EB" fill-opacity="0.8"/>
</svg>
