<svg width="24" height="24" viewBox="0 0 24 24" fill="none" xmlns="http://www.w3.org/2000/svg">
<path d="M0.292042 1.70804C0.199066 1.61507 0.125314 1.50469 0.074996 1.38321C0.0246778 1.26173 -0.0012207 1.13153 -0.0012207 1.00004C-0.0012207 0.868555 0.0246778 0.738355 0.074996 0.616876C0.125314 0.495397 0.199066 0.385018 0.292042 0.292042C0.385018 0.199066 0.495397 0.125314 0.616876 0.074996C0.738355 0.0246778 0.868555 -0.0012207 1.00004 -0.0012207C1.13153 -0.0012207 1.26173 0.0246778 1.38321 0.074996C1.50469 0.125314 1.61507 0.199066 1.70804 0.292042L12 10.586L22.292 0.292042C22.385 0.199066 22.4954 0.125314 22.6169 0.074996C22.7384 0.0246778 22.8686 -0.0012207 23 -0.0012207C23.1315 -0.0012207 23.2617 0.0246778 23.3832 0.074996C23.5047 0.125314 23.6151 0.199066 23.708 0.292042C23.801 0.385018 23.8748 0.495397 23.9251 0.616876C23.9754 0.738355 24.0013 0.868555 24.0013 1.00004C24.0013 1.13153 23.9754 1.26173 23.9251 1.38321C23.8748 1.50469 23.801 1.61507 23.708 1.70804L13.414 12L23.708 22.292C23.801 22.385 23.8748 22.4954 23.9251 22.6169C23.9754 22.7384 24.0013 22.8686 24.0013 23C24.0013 23.1315 23.9754 23.2617 23.9251 23.3832C23.8748 23.5047 23.801 23.6151 23.708 23.708C23.6151 23.801 23.5047 23.8748 23.3832 23.9251C23.2617 23.9754 23.1315 24.0013 23 24.0013C22.8686 24.0013 22.7384 23.9754 22.6169 23.9251C22.4954 23.8748 22.385 23.801 22.292 23.708L12 13.414L1.70804 23.708C1.61507 23.801 1.50469 23.8748 1.38321 23.9251C1.26173 23.9754 1.13153 24.0013 1.00004 24.0013C0.868555 24.0013 0.738355 23.9754 0.616876 23.9251C0.495397 23.8748 0.385018 23.801 0.292042 23.708C0.199066 23.6151 0.125314 23.5047 0.074996 23.3832C0.0246778 23.2617 -0.0012207 23.1315 -0.0012207 23C-0.0012207 22.8686 0.0246778 22.7384 0.074996 22.6169C0.125314 22.4954 0.199066 22.385 0.292042 22.292L10.586 12L0.292042 1.70804Z" fill="#446883"/>
</svg>
