<svg width="54" height="55" viewBox="0 0 54 55" fill="none" xmlns="http://www.w3.org/2000/svg">
<path d="M6.75 27.2157H27V30.5954H6.75V27.2157ZM3.375 18.7665H20.25V22.1462H3.375V18.7665Z" fill="#EA7C6C" fill-opacity="0.81"/>
<path d="M50.4883 28.2397L45.4258 16.4107C45.2959 16.1067 45.0797 15.8476 44.804 15.6655C44.5283 15.4835 44.2052 15.3865 43.875 15.3867H38.8125V12.007C38.8125 11.5588 38.6347 11.129 38.3182 10.8121C38.0018 10.4952 37.5726 10.3171 37.125 10.3171H10.125V13.6968H35.4375V34.9146C34.6686 35.3617 33.9956 35.9568 33.4575 36.6657C32.9194 37.3745 32.5267 38.183 32.3021 39.0445H21.6979C21.2871 37.4516 20.3104 36.0633 18.9506 35.14C17.5909 34.2166 15.9415 33.8216 14.3117 34.0289C12.6819 34.2362 11.1835 35.0316 10.0975 36.266C9.0114 37.5005 8.41222 39.0892 8.41222 40.7344C8.41222 42.3796 9.0114 43.9683 10.0975 45.2027C11.1835 46.4372 12.6819 47.2326 14.3117 47.4399C15.9415 47.6472 17.5909 47.2522 18.9506 46.3288C20.3104 45.4055 21.2871 44.0172 21.6979 42.4242H32.3021C32.6692 43.8745 33.5087 45.1608 34.6879 46.0797C35.867 46.9985 37.3184 47.4974 38.8125 47.4974C40.3066 47.4974 41.758 46.9985 42.9371 46.0797C44.1163 45.1608 44.9558 43.8745 45.3229 42.4242H48.9375C49.3851 42.4242 49.8143 42.2462 50.1307 41.9293C50.4472 41.6124 50.625 41.1826 50.625 40.7344V28.9055C50.6251 28.6765 50.5786 28.45 50.4883 28.2397ZM15.1875 44.1141C14.52 44.1141 13.8675 43.9159 13.3125 43.5445C12.7574 43.1731 12.3249 42.6453 12.0694 42.0278C11.814 41.4102 11.7471 40.7306 11.8773 40.0751C12.0076 39.4195 12.329 38.8172 12.801 38.3446C13.273 37.8719 13.8744 37.55 14.5291 37.4196C15.1838 37.2892 15.8624 37.3562 16.4791 37.612C17.0958 37.8678 17.6229 38.3009 17.9937 38.8567C18.3646 39.4125 18.5625 40.066 18.5625 40.7344C18.5616 41.6305 18.2057 42.4896 17.573 43.1232C16.9403 43.7568 16.0823 44.1132 15.1875 44.1141ZM38.8125 18.7664H42.7612L46.3792 27.2156H38.8125V18.7664ZM38.8125 44.1141C38.145 44.1141 37.4925 43.9159 36.9374 43.5445C36.3824 43.1731 35.9499 42.6453 35.6944 42.0278C35.439 41.4102 35.3721 40.7306 35.5023 40.0751C35.6326 39.4195 35.954 38.8172 36.426 38.3446C36.898 37.8719 37.4994 37.55 38.1541 37.4196C38.8088 37.2892 39.4874 37.3562 40.1041 37.612C40.7208 37.8678 41.2479 38.3009 41.6187 38.8567C41.9896 39.4125 42.1875 40.066 42.1875 40.7344C42.1866 41.6305 41.8307 42.4896 41.198 43.1232C40.5653 43.7568 39.7073 44.1132 38.8125 44.1141ZM47.25 39.0445H45.3229C44.9512 37.5971 44.1103 36.3141 42.9321 35.3966C41.7539 34.4792 40.305 33.9792 38.8125 33.975V30.5953H47.25V39.0445Z" fill="#EA7C6C" fill-opacity="0.81"/>
</svg>
