<svg width="52" height="52" viewBox="0 0 52 52" fill="none" xmlns="http://www.w3.org/2000/svg">
<path d="M7.98172 0.956643C4.89148 0.996777 2.34969 3.64033 3.4782 8.37296L7.72859 9.58331C8.14203 7.81954 9.84219 6.71902 11.4559 6.42119L11.6562 2.14799C10.475 1.32841 9.18406 0.940801 7.98172 0.956643ZM17.225 1.14569C16.1492 1.13513 14.9258 1.52802 13.618 2.44054L13.4281 6.45604C14.9785 6.80352 16.3285 7.8903 16.9508 9.42489L20.368 8.17335C21.9289 4.39654 20.2309 1.17632 17.225 1.14569ZM41.5145 1.25765C40.4914 1.24709 39.4578 1.78044 39.7953 2.90525C40.4281 5.03234 42.2949 4.6722 43.0648 2.86934C43.5078 1.82163 42.5269 1.26821 41.5039 1.2587L41.5145 1.25765ZM29.6703 1.85437C28.3625 1.83959 27.118 3.1112 28.3098 5.609C24.7027 5.53402 26.0633 10.5529 28.7738 9.14818C27.3605 13.5207 33.0664 14.2072 32.307 9.66781C35.7137 11.8097 37.2535 8.38458 33.8574 6.78134C38.3082 5.81284 34.6379 0.545799 31.7691 4.25501C31.7586 2.65705 30.6934 1.86705 29.6703 1.85543V1.85437ZM30.7566 5.99556C31.4211 5.99556 31.959 6.53208 31.959 7.19324C31.959 7.85544 31.4211 8.39092 30.7566 8.39092C30.0922 8.39092 29.5648 7.85544 29.5648 7.19324C29.5648 6.53208 30.0922 5.99556 30.7566 5.99556ZM45.3219 6.13391C43.4867 6.1223 42.3371 8.5092 45.9652 9.91917C44.0351 12.5384 49.4141 14.9253 48.5387 10.4895C53.0422 10.3522 50.3527 4.49687 47.6949 7.68435C46.9883 6.57011 46.0918 6.13814 45.3219 6.13391ZM11.593 8.40676C9.97929 8.83767 9.0575 10.4684 9.47937 12.0632C9.90547 13.6791 11.5297 14.6191 13.1328 14.186C14.7359 13.7636 15.6746 12.1265 15.2422 10.5212C14.8836 9.15874 13.6602 8.27685 12.3207 8.3022C12.0781 8.31276 11.8039 8.35078 11.593 8.40676ZM21.2223 9.96142L17.3199 11.3872C17.2883 12.6229 16.8137 13.7741 16.0121 14.6613L18.9969 17.703C23.6059 18.0727 25.5781 12.4962 21.2223 9.96142ZM2.38133 10.1093C-1.43654 13.2038 3.00359 21.1883 7.04305 19.8259L9.52156 15.3689C8.05765 14.26 7.47863 13.0982 7.42273 11.5456L2.38133 10.1093ZM41.1137 12.3061C39.5316 12.3272 37.7598 13.3411 36.2094 15.6858L37.4117 20.8926C37.5699 20.8821 37.7281 20.8926 37.8863 20.9032C39.2047 20.9982 40.4703 21.5686 41.409 22.5508L45.5644 19.6252C46.134 15.4112 44.0035 12.3695 41.2613 12.3061H41.1137ZM49.4562 15.2739C47.2414 15.3372 47.1043 17.2383 48.6441 18.4529C50.4371 19.847 51.7976 15.2105 49.4562 15.2739ZM32.0223 15.6435C27.793 15.6858 24.1859 19.0549 27.4449 24.9799L32.307 24.9905C32.6551 23.0155 33.9102 21.9593 35.4816 21.2834L34.2371 15.9287C33.5094 15.728 32.75 15.633 32.0223 15.6435ZM14.409 15.8336C13.4492 16.2667 12.2469 16.3512 11.3293 16.161L8.99422 20.3751C12.7215 24.8532 16.0543 22.3501 17.2039 18.6853L14.409 15.8336ZM45.8387 21.8537L42.4848 24.2089C42.991 25.4658 43.0016 26.8282 42.5691 28.0428L46.366 30.2924C51.8082 29.5108 52.2195 22.7409 45.8387 21.8537ZM37.5172 22.8571C36.9371 22.8571 36.357 23.0049 35.8191 23.3112C34.1844 24.2618 33.6359 26.3213 34.5746 27.9583C35.5238 29.5953 37.5805 30.1551 39.2152 29.2046C40.85 28.2646 41.409 26.1945 40.4598 24.5575C39.8691 23.533 38.8461 22.931 37.7598 22.8571H37.5172ZM7.40164 24.0611C3.74187 24.1139 1.30555 27.4302 3.88953 32.6793L9.50047 34.4431C10.3062 32.9645 11.7406 31.8872 13.4492 31.5598L13.1328 26.4057C11.2238 24.7687 9.17351 24.0294 7.40164 24.0611ZM19.4187 24.3568C18.0371 24.3779 16.4973 25.0856 15.1262 26.7226L15.4215 31.5175C16.8242 31.7393 18.0687 32.4786 18.9441 33.5348L23.0785 31.1901C24.6711 27.4197 22.393 24.304 19.4187 24.3568ZM27.118 26.9444C23.8695 32.9011 29.7441 37.1152 34.3109 35.4676L35.5027 31.2324C34.4375 30.7994 33.4883 30.0178 32.8766 28.9511C32.5074 28.3174 32.2965 27.652 32.2016 26.9655L27.118 26.9444ZM41.5883 29.7538C41.2086 30.2079 40.7445 30.5987 40.2066 30.9155C39.3312 31.4119 38.382 31.6443 37.4434 31.6337L36.1777 36.1329C39.7215 40.1463 45.7332 36.2597 45.3008 31.9506L41.5883 29.7538ZM23.5742 33.1863L19.925 35.2458C20.5262 36.9145 20.2309 38.8789 19.3871 40.2519L22.5723 43.5999C29.702 40.6322 27.6875 35.6893 23.5742 33.1863ZM14.5355 33.4186C12.4367 33.4186 10.7598 35.1085 10.7598 37.1996C10.7598 39.3014 12.4367 40.9807 14.5355 40.9807C16.6238 40.9807 18.3008 39.3014 18.3008 37.1996C18.3008 35.1085 16.6238 33.4186 14.5355 33.4186ZM3.26726 34.5487C-0.603334 38.5938 0.841483 46.7156 7.90789 46.1136L10.6332 41.4137C9.0923 40.009 8.54597 38.1608 8.86765 36.3125L3.26726 34.5487ZM48.1906 36.8722C46.5559 36.8828 43.8137 39.312 46.7351 39.9351C46.3871 43.9485 51.9137 40.516 49.1609 38.4565C49.3719 37.2841 48.8762 36.8617 48.1906 36.8722ZM35.6187 39.4493C34.775 39.4493 33.8996 40.1991 33.5727 42.1319C31.0519 38.8895 27.4344 42.6177 31.4105 44.9624C26.3902 47.5394 31.6848 50.9825 33.7203 47.8668C34.1738 53.0948 40.1328 49.789 36.7894 46.7262C41.0293 47.4232 41.0187 43.3253 36.8949 43.4521C38.3293 41.4771 37.0215 39.4387 35.6187 39.4493ZM18.0687 41.72C16.1598 42.9663 14.2719 43.3253 12.2891 42.491L9.23679 47.7506C11.5191 53.1793 22.0449 50.6128 21.9289 45.575L21.834 45.67L18.0687 41.72ZM34.5641 43.9168C35.2285 43.9168 35.7559 44.4554 35.7559 45.1102C35.7559 45.7756 35.2285 46.3143 34.5641 46.3143C33.8996 46.3143 33.3723 45.7756 33.3723 45.1102C33.3723 44.4554 33.8996 43.9168 34.5641 43.9168ZM45.9652 44.6561C44.6785 44.6139 44.2566 46.779 46.6402 48.1308C44.3727 51.1726 49.741 53.4856 49.1504 48.849C53.0211 49.5883 50.1629 45.0363 48.2539 46.6628C47.4312 45.237 46.598 44.6772 45.9652 44.6561Z" fill="#EA7C6C" fill-opacity="0.81"/>
</svg>
