<svg width="52" height="52" viewBox="0 0 52 52" fill="none" xmlns="http://www.w3.org/2000/svg">
<path d="M40.8956 9.88343L39.9404 11.3215C39.7987 11.5327 36.7013 16.239 35.6415 21.4749L33.6739 18.1426C36.0938 16.0412 36.8937 11.9434 35.3892 8.09135C33.6511 3.63607 29.0173 1.45194 28.819 1.36069L27.3669 0.689819L28.0031 2.18787C28.0073 2.19801 28.1271 2.50218 28.2224 3.02519C27.3656 2.43007 26.4757 1.88421 25.557 1.39026L24.9335 1.0675L24.7006 1.74344C24.6795 1.80765 24.2534 3.06237 23.8771 4.83164C23.7195 4.5931 23.5858 4.33951 23.478 4.07458L22.9254 2.53344L22.3288 4.05853C22.2478 4.26385 20.3739 9.15511 22.112 13.6112C22.1424 13.6898 22.1803 13.7633 22.2124 13.8402C22.0808 13.7245 21.9525 13.607 21.8133 13.4955C18.116 10.5518 13.0392 11.068 12.8257 11.0917L11.2394 11.2649L12.527 12.2289C12.5354 12.2357 12.7911 12.4351 13.1294 12.8373C11.3744 12.7258 10.0894 12.8035 10.0236 12.8086L9.32581 12.8533L9.45828 13.558C9.47094 13.6239 9.72237 14.9268 10.27 16.6487C10.0172 16.5239 9.77722 16.3745 9.55363 16.2026L8.31584 15.1583L8.55209 16.7831C8.57909 16.9732 9.17816 20.8556 11.7119 23.8095C7.08481 23.2273 2.99431 26.302 2.82303 26.4346L1.54475 27.4097L3.131 27.5677C3.14112 27.5694 3.45922 27.6082 3.95197 27.7772C3.02681 28.2585 2.12934 28.7914 1.26378 29.3733L0.6875 29.7772L1.14988 30.3128C1.19375 30.3644 2.05859 31.3529 3.38581 32.5494C3.10603 32.5741 2.82448 32.5704 2.54544 32.5384L0.962562 32.2857L1.97422 33.5599C2.11006 33.7331 5.37284 37.7862 10.0168 38.3903C12.6612 38.7342 15.2413 38.0811 17.101 36.5999C18.2021 35.7212 18.9597 34.5848 19.3276 33.3351L22.6933 33.9325C19.477 35.3908 17.4891 37.0139 16.3526 38.1791C15.6607 38.888 15.3586 39.3569 15.3468 39.3763L14.8296 40.1849L20.1663 39.2479L19.1496 40.2948C19.1496 40.2948 31.1325 38.2171 38.2529 43.3297L36.7536 44.876L39.8156 48.0326L41.0348 46.7762C41.8026 48.8074 42.2439 51.3852 42.2439 51.3852L44.5794 48.9907L46.2053 50.6578L50.5978 46.1552L48.9719 44.489L51.3125 42.0894C51.3125 42.0894 48.7948 41.6205 46.8162 40.8195L48.0371 39.5605L44.9743 36.4039L43.4724 37.951C38.5094 30.6128 40.5277 18.2634 40.5277 18.2634L39.7886 19.0264L40.8956 9.88343ZM25.6397 2.87141C26.5643 3.40939 27.4584 3.99837 28.3178 4.63561C28.2756 5.51433 28.0739 6.58485 27.5483 7.77619C26.3704 7.29543 25.5106 6.67019 24.8922 6.07029C25.1301 4.73024 25.4355 3.56847 25.6397 2.87141ZM29.4973 3.18319C30.9064 4.08219 33.2039 5.88188 34.2485 8.55944C35.7875 12.5061 34.624 16.7197 31.6565 17.9525C31.5378 18.0019 31.4157 18.0428 31.2912 18.075L31.2903 18.0758C29.6703 18.5101 27.636 17.7057 26.6632 16.2457C25.6271 14.6919 25.9021 12.6413 27.4394 10.4698C29.5767 7.4416 29.7032 4.76573 29.4973 3.18319ZM30.5056 19.5772L32.0058 23.2822C31.2313 22.1957 30.5816 20.9198 30.0373 19.6339C30.1951 19.6229 30.3495 19.5984 30.5056 19.5772ZM23.2544 13.1406C22.2116 10.4681 22.6604 7.51849 23.0713 5.85653C23.7489 6.80369 24.9613 8.04488 26.9762 8.89741C26.8151 9.17032 26.6396 9.44661 26.4396 9.72881C24.3108 12.741 24.6584 14.991 25.2896 16.3234C24.4036 15.4109 23.7113 14.3282 23.2544 13.1406ZM26.3367 18.7137C26.5054 20.9401 27.1306 23.556 28.6941 26.2631L25.039 23.6743C25.8658 21.9185 25.8245 19.7961 25.028 17.786C25.4431 18.1366 25.8777 18.4535 26.3367 18.7137ZM30.3765 28.4777L29.024 29.8642L23.932 25.3185C24.0509 25.1858 24.1707 25.0557 24.2779 24.9138L24.3707 24.7769C24.3884 24.7541 24.4104 24.7321 24.4281 24.7102C24.5015 24.6121 24.5606 24.5074 24.6272 24.406L30.3765 28.4777ZM14.3082 12.3134C15.9678 12.3599 18.8366 12.7224 21.0582 14.4916C24.3328 17.0991 25.406 21.3381 23.4536 23.9396C23.3747 24.0432 23.2896 24.142 23.1987 24.2353C22.0141 25.4503 19.8626 25.8086 18.3025 25.054C16.6428 24.2505 15.8682 22.3376 16.1239 19.6685C16.4766 15.9475 15.265 13.5715 14.3082 12.3134ZM25.3959 27.7409C24.5708 27.2401 23.7567 26.7215 22.9541 26.1854C23.0924 26.0891 23.2148 25.9742 23.343 25.866C23.3346 25.8728 23.3287 25.8821 23.3211 25.888L25.3959 27.7409ZM10.826 14.0421C11.5297 14.0303 12.6915 14.0464 14.0061 14.1765C14.4052 14.9564 14.7579 15.9855 14.892 17.285C13.6374 17.4793 12.5877 17.3864 11.7575 17.1895C11.391 16.1578 11.08 15.1072 10.826 14.0421ZM10.0827 17.9482C11.1323 18.4155 12.7919 18.8574 14.9502 18.549C14.946 18.8692 14.9317 19.1996 14.8979 19.5451C14.5452 23.2476 15.9543 25.0093 17.1567 25.8305C16.8597 25.7519 16.566 25.6556 16.2733 25.5441C15.6561 25.1094 14.9904 24.7484 14.2896 24.4685C14.136 24.3595 13.9799 24.259 13.8306 24.139C11.6124 22.3723 10.5459 19.595 10.0827 17.9482ZM18.143 27.2998C18.7083 27.3624 19.2703 27.3632 19.8237 27.31C20.4497 28.3295 21.1334 29.3124 21.8715 30.2537L19.482 30.154C19.2601 29.1124 18.802 28.1358 18.143 27.2998ZM2.56822 30.0171C3.47383 29.4512 4.40984 28.9356 5.372 28.4726C6.10269 28.9373 6.91606 29.6369 7.67881 30.6871C6.69584 31.5084 5.74578 31.9765 4.93409 32.2393C4.10529 31.5427 3.31546 30.8008 2.56822 30.0171ZM10.1721 37.1373C7.38603 36.7748 5.08681 34.9413 3.86844 33.7669C5.00497 33.6199 6.65197 33.1357 8.3555 31.7433C8.51244 32.0196 8.66263 32.3119 8.80691 32.6262C10.3417 35.9975 12.43 36.7774 13.8736 36.8585C12.7261 37.199 11.463 37.3054 10.1721 37.1373ZM18.2814 32.3297V32.3314C17.8646 33.9942 16.1923 35.4263 14.4744 35.5902C12.6468 35.7643 11.0302 34.5231 9.92234 32.0914C8.37659 28.7058 6.155 27.2956 4.70459 26.7118C6.15584 25.8846 8.80522 24.7009 11.5963 25.0625C12.338 25.1588 13.0425 25.3405 13.6998 25.5889C14.3512 26.0375 15.0346 26.4068 15.7366 26.6864C17.5363 28.007 18.5919 29.9428 18.3539 31.9444C18.3371 32.0737 18.3143 32.2021 18.2814 32.3297ZM20.8118 38.2805L16.7196 38.9995C17.8553 37.7777 20.1984 35.7871 24.3083 34.1572L25.1681 33.8176L20.8118 38.2805ZM25.4178 33.5607L19.5166 32.5139C19.5259 32.4598 19.5394 32.4057 19.547 32.3516L19.5597 32.1869C19.563 32.1565 19.5748 32.1269 19.5765 32.0973C19.6204 31.7289 19.6187 31.3639 19.5951 31.0006L23.721 31.1755L23.0941 30.4379C22.1761 29.3598 21.3796 28.2183 20.7105 27.1554C21.2131 27.0465 21.7013 26.8792 22.1652 26.6569C24.1764 28.0191 26.2595 29.2717 28.4055 30.4092L28.4637 30.4396L25.4178 33.5607ZM49.4352 46.1569L46.2044 49.469L45.1616 48.3942L48.394 45.0821L49.4352 46.1569ZM44.9743 37.5969L46.8794 39.5605L39.8147 46.8396L37.9104 44.876L44.9743 37.5969ZM30.849 27.9927L30.5714 27.6184C28.3498 24.6113 27.4639 21.6355 27.199 19.132C27.8154 19.3931 28.4676 19.5597 29.1337 19.6263C30.0627 21.8999 31.3308 24.2015 33.0158 25.6514L33.0799 25.7072L30.849 27.9927ZM33.6435 25.1301L31.3266 19.41C31.5156 19.355 31.7029 19.2942 31.8868 19.219L32.0345 19.1506C32.0615 19.1387 32.0919 19.1337 32.1197 19.1218C32.4305 18.9887 32.7289 18.8284 33.0116 18.6428L35.6356 23.0887L33.6435 25.1301ZM36.3098 22.3959C36.8759 18.8684 38.5491 15.4126 39.6367 13.4482L38.8706 19.7707L36.3098 22.3959Z" fill="#EA7C6C" fill-opacity="0.81"/>
</svg>
