<svg xmlns="http://www.w3.org/2000/svg" aria-hidden="true" style="position:absolute;width:0;height:0;overflow:hidden"><defs><symbol id="icon-am-ex" viewBox="0 0 32 32"><path fill="#3173eb" d="M29.847 31.999H2.132c-.565 0-1.108-.337-1.508-.937S0 29.648 0 28.799V15.337h1.536l.346-1.259h.775l.346 1.253h3.022v-.953l.27.96h1.569l.27-.976v.973h7.509v-2.059h.142c.101.005.131.019.131.272v1.789h3.885v-.479c.397.303.865.48 1.362.48l.08-.001h1.634l.35-1.253h.775l.342 1.253h3.15v-1.192l.476 1.192h2.519V7.465h-2.493v.929l-.349-.929h-2.564v.929l-.321-.929H21.3c-.524-.04-1.047.122-1.518.471l.019-.012v-.459h-2.388v.459c-.289-.342-.654-.505-1.021-.457h-8.72L7.087 9.5l-.601-2.033H3.738v.929l-.303-.929H1.09L.004 11.2v-8c0-.849.225-1.663.624-2.263S1.57 0 2.136 0h27.715c.565 0 1.108.337 1.507.937s.624 1.414.624 2.263v13.974h-1.664c-.027-.003-.059-.003-.09-.003-.386 0-.744.173-1.042.471l.007-.007v-.461h-2.461c-.384-.032-.765.132-1.079.465l.005-.005v-.461h-4.393v.461c-.36-.304-.766-.463-1.179-.461h-2.931v.461c-.379-.364-.828-.526-1.276-.46l.008-.001h-3.243l-.743 1.205-.695-1.205H6.361v7.878h4.754l.765-1.224.72 1.224h2.931v-1.844h.409c.393.023.785-.075 1.151-.289l-.02.011v2.125h2.416v-2.052h.116c.147 0 .163.008.163.232v1.821l7.432.003c.421 0 .814-.189 1.141-.513l-.008.007v.504h2.329l.111.003c.436 0 .851-.135 1.228-.379l-.02.012v4.11c0 .849-.225 1.663-.624 2.263s-.942.937-1.507.937l-.001-.001zm-11.099-8.053h-.904v-5.647h2.075c.375-.052.752.043 1.095.275L21 18.566c.278.229.464.667.464 1.168l-.002.089v-.004l.001.051c0 .648-.26 1.205-.633 1.448l-.007.004c.179.096.328.26.439.472l.002.003c.125.312.178.677.149 1.039l.001-.008v1.117h-.902v-.707a2.308 2.308 0 0 0-.145-1.112l.003.007c-.094-.107-.201-.184-.315-.227s-.233-.05-.349-.022l.005-.001h-.961v2.064zm0-4.48v1.268h1.093c.154.021.31-.02.45-.12l-.005.004c.057-.055.104-.131.137-.221s.05-.19.05-.292l-.001-.031c.004-.102-.011-.202-.043-.292s-.081-.164-.141-.213l-.002-.001a.617.617 0 0 0-.43-.107h.004l-1.11.005zm-8.017 4.479H7.172v-5.646h3.615l1.106 1.851 1.143-1.851h2.872c1.02 0 1.515.609 1.515 1.86 0 1.273-.513 1.892-1.563 1.892h-1.124v1.892h-1.747l-1.107-1.865-1.15 1.867h-.001zm3.11-5.04-1.38 2.227 1.38 2.299v-4.526zm-5.773 2.74v1.123h2.21l1.022-1.656-.982-1.645h-2.25v1.027h1.974v1.151l-1.973.001zm6.668-2.178v1.437h1.161c.355 0 .56-.272.56-.747 0-.453-.19-.692-.55-.692l-1.171.001zm16.023 4.481h-1.736v-1.213h1.729c.129.027.26-.024.365-.141l-.001.001c.033-.047.06-.103.078-.165s.028-.13.028-.199v-.021c0-.067-.01-.134-.029-.195s-.046-.116-.081-.159c-.092-.1-.205-.144-.318-.125h.002l-.166-.008c-.812-.032-1.731-.069-1.731-1.74 0-.813.339-1.681 1.289-1.681h1.792v1.203h-1.639a.452.452 0 0 0-.366.109l.004-.003c-.044.043-.079.104-.102.174s-.033.15-.028.228v-.001.015c0 .09.019.177.054.25s.085.127.141.155l.002.001a.688.688 0 0 0 .348.064h-.003l.488.019c.368-.055.735.109 1.022.457l-.003-.003c.027.032.05.067.07.105l.001.001.011 2.149c-.149.262-.339.465-.553.591s-.445.171-.673.131l.006.001zm-3.508 0h-1.752v-1.213h1.743c.13.026.262-.025.369-.141l-.002.001c.033-.047.06-.103.078-.166s.027-.13.027-.198v-.013c0-.069-.01-.136-.029-.199s-.046-.118-.081-.164c-.094-.1-.208-.144-.322-.125h.002l-.165-.008c-.809-.032-1.728-.069-1.728-1.74 0-.813.338-1.681 1.285-1.681h1.802v1.203h-1.649a.445.445 0 0 0-.363.109l.004-.003c-.047.048-.084.114-.107.192s-.033.163-.027.247c.006.085.027.165.061.233s.08.121.132.153l.002.001a.692.692 0 0 0 .353.064h-.003l.484.019c.37-.053.738.111 1.029.459l-.003-.004c.098.162.172.352.218.558s.063.426.05.643v-.007c.003 1.177-.473 1.777-1.41 1.777l.003.003zm-2.29 0h-3.002v-5.65h3v1.167h-2.103v1.027h2.054v1.151h-2.054v1.123l2.105.005v1.177zm1.75-9.715H24.88l-.35-1.259h-1.867l-.339 1.259h-1.052c-.472.037-.937-.186-1.308-.628l.004.004c-.176-.291-.309-.634-.392-1.008s-.112-.768-.088-1.159l-.001.011c-.023-.399.008-.8.092-1.18s.218-.73.395-1.03l-.002.003c.187-.245.405-.429.641-.542s.485-.152.732-.114l-.007-.001h.87v1.204h-.853c-.125-.024-.252-.007-.371.051s-.23.155-.322.283l.001-.001c-.19.365-.282.824-.258 1.285v-.007c-.028.475.06.948.25 1.331l-.003-.005c.177.217.403.321.63.291h.4l1.271-4.44h1.35l1.522 5.334V8.581h1.369l1.579 3.931V8.581h.924v5.643h-1.283l-1.706-4.238v4.238l.002.009zm-3.108-4.691-.619 2.251h1.241l-.622-2.251zm-8.704 4.688H14V8.584h2.068c.378-.059.759.037 1.102.279l-.013-.008c.138.115.253.283.334.487s.123.437.123.674l-.002.093v-.004.041c0 .308-.059.609-.17.868s-.27.464-.457.591l-.007.004c.179.101.329.264.443.472l.002.003c.127.313.179.681.148 1.044l.001-.008v1.108h-.907l-.004-.712v-.107a2.105 2.105 0 0 0-.145-.999l.003.007c-.094-.104-.201-.178-.314-.22s-.231-.049-.347-.021l.005-.001h-.964v2.053l-.001.001zm0-4.471v1.253h1.091a.588.588 0 0 0 .449-.12l-.004.003c.057-.052.104-.125.137-.212s.05-.185.05-.285l-.001-.037c.005-.101-.011-.201-.044-.289s-.083-.16-.143-.207l-.002-.001a.647.647 0 0 0-.429-.107h.003l-1.105.003zM5.38 14.23H3.554l-.346-1.259H1.335L.987 14.23H.01l1.61-5.646h1.335l1.529 5.343V8.584h1.467l1.176 3.828 1.081-3.828h1.497v5.643h-.924l-.002-4.416-1.303 4.418h-.789L5.38 9.805v4.424l-.001.001zM2.267 9.542l-.612 2.251h1.228l-.616-2.251zm16.778 4.687h-.917V8.585h.918v5.643l-.001.001zm-5.673 0h-2.997V8.585h3.002v1.173h-2.104v1.017h2.053v1.159h-2.055v1.128h2.103v1.165l-.004.001z" opacity=".8" style="fill:var(--color1, #3173eb)"/></symbol><symbol id="icon-Arrow-left" viewBox="0 0 32 32"><path fill="#fff" d="M.909 15.293a.999.999 0 0 0 0 1.414l6.364 6.364a1 1 0 0 0 1.414-1.414L3.03 16l5.657-5.657a.999.999 0 1 0-1.414-1.414L.909 15.293zM31.341 15H1.616v2h29.725v-2z" style="fill:var(--color2, #fff)"/></symbol><symbol id="icon-Arrow-right" viewBox="0 0 32 32"><path fill="#fff" d="M31.048 15.293a.999.999 0 0 1 0 1.414l-6.364 6.364a1 1 0 0 1-1.414-1.414L28.927 16l-5.657-5.657a.999.999 0 1 1 1.414-1.414l6.364 6.364zM.616 15h29.725v2H.616v-2z" style="fill:var(--color2, #fff)"/></symbol><symbol id="icon-bouquet" viewBox="0 0 32 32"><path fill="#e5beb2" d="m24.337 6.44-.535.851c-.079.125-1.813 2.91-2.406 6.009l-1.101-1.972c1.354-1.244 1.802-3.668.96-5.948-.973-2.636-3.566-3.929-3.677-3.983L16.765 1l.356.887c.002.006.069.186.123.495-.48-.352-.978-.675-1.492-.968l-.349-.191-.13.4c-.012.038-.25.78-.461 1.828a2.599 2.599 0 0 1-.223-.448l-.309-.912-.334.902c-.045.122-1.094 3.016-.121 5.653.017.046.038.09.056.135-.074-.069-.145-.138-.223-.204-2.069-1.742-4.911-1.437-5.03-1.423l-.888.103.721.571c.005.004.148.122.337.36a14.062 14.062 0 0 0-1.738-.017l-.391.027.074.417c.007.039.148.81.454 1.829a2.393 2.393 0 0 1-.401-.264l-.693-.618.132.961c.015.113.35 2.41 1.768 4.158-2.59-.344-4.879 1.475-4.975 1.554l-.715.577.888.093c.006.001.184.024.459.124-.518.285-1.02.6-1.505.944l-.323.239.259.317c.025.03.509.615 1.251 1.323a2.172 2.172 0 0 1-.47-.007l-.886-.149.566.754c.076.103 1.902 2.501 4.501 2.858 1.48.203 2.924-.183 3.965-1.059a3.885 3.885 0 0 0 1.246-1.932l1.884.353c-1.8.863-2.913 1.824-3.549 2.513a4.856 4.856 0 0 0-.563.709l-.289.478 2.987-.555-.569.619s6.707-1.229 10.692 1.796l-.839.915 1.714 1.868.682-.744c.43 1.202.677 2.728.677 2.728l1.307-1.417.91.986 2.458-2.664-.91-.986 1.31-1.42s-1.409-.277-2.516-.752l.683-.745-1.714-1.868-.841.916C23 18.704 24.13 11.397 24.13 11.397l-.414.451.62-5.411zm-8.539-4.149c.517.318 1.018.667 1.499 1.044a5.456 5.456 0 0 1-.431 1.859 4.593 4.593 0 0 1-1.487-1.01c.133-.793.304-1.481.418-1.893zm2.159.184c.789.532 2.075 1.597 2.659 3.182.861 2.335.21 4.829-1.451 5.559a1.498 1.498 0 0 1-.204.072c-.907.257-2.045-.219-2.59-1.083-.58-.92-.426-2.133.434-3.418 1.196-1.792 1.267-3.376 1.152-4.312zm.565 9.702.84 2.192c-.434-.643-.797-1.398-1.102-2.159.088-.007.175-.021.262-.033zm-4.059-3.809c-.584-1.582-.332-3.327-.103-4.311.379.561 1.058 1.295 2.185 1.8-.09.162-.188.325-.3.492-1.191 1.783-.997 3.114-.644 3.903a5.636 5.636 0 0 1-1.139-1.883zm1.725 3.298a10.887 10.887 0 0 0 1.319 4.468l-2.046-1.532c.463-1.039.44-2.295-.006-3.485.232.208.476.395.732.549zm2.261 5.778-.757.82-2.85-2.69c.067-.079.134-.155.194-.24l.052-.081c.01-.014.022-.027.032-.039.041-.058.074-.12.111-.18l3.218 2.41zM9.456 7.879c.929.027 2.534.242 3.778 1.289 1.833 1.543 2.433 4.052 1.341 5.591-.044.061-.092.12-.143.175-.663.719-1.867.931-2.74.485-.929-.476-1.362-1.608-1.219-3.187.197-2.202-.481-3.608-1.016-4.352zm6.206 9.129a37.523 37.523 0 0 1-1.367-.92c.077-.057.146-.125.218-.189l-.012.013 1.161 1.096zM7.508 8.902a15.08 15.08 0 0 1 1.78.079c.223.461.421 1.071.496 1.84-.702.115-1.29.06-1.754-.057a18.954 18.954 0 0 1-.521-1.862zm-.416 2.311c.587.277 1.516.538 2.724.355-.002.19-.01.385-.029.589-.197 2.191.591 3.234 1.264 3.72a5.05 5.05 0 0 1-.494-.169 5.306 5.306 0 0 0-1.11-.636c-.086-.065-.173-.124-.257-.195-1.241-1.046-1.838-2.689-2.098-3.664zm4.511 5.534c.316.037.631.037.941.006.35.603.733 1.185 1.146 1.742l-1.337-.059a4.233 4.233 0 0 0-.749-1.689zm-8.717 1.608c.507-.335 1.031-.64 1.569-.914.409.275.864.689 1.291 1.311a4.539 4.539 0 0 1-1.536.918 16.76 16.76 0 0 1-1.324-1.315zm4.256 4.213c-1.559-.214-2.846-1.3-3.528-1.994.636-.087 1.558-.373 2.511-1.198.088.163.172.337.253.523.859 1.995 2.028 2.456 2.836 2.504a4.754 4.754 0 0 1-2.072.165zm4.538-2.844v.001c-.233.984-1.169 1.831-2.131 1.928-1.023.103-1.928-.631-2.548-2.07-.865-2.003-2.108-2.838-2.92-3.184.812-.489 2.295-1.19 3.857-.976.415.057.809.165 1.177.312.364.265.747.484 1.14.649 1.007.782 1.598 1.927 1.465 3.112a1.82 1.82 0 0 1-.041.228zm1.416 3.521-2.29.426c.636-.723 1.947-1.901 4.247-2.866l.481-.201-2.438 2.641zm2.578-2.793-3.303-.619c.005-.032.013-.064.017-.096l.007-.097c.002-.018.008-.035.009-.053.025-.218.024-.434.01-.649l2.309.103-.351-.436a16.792 16.792 0 0 1-1.334-1.943c.281-.064.554-.163.814-.295a37.561 37.561 0 0 0 3.493 2.221l.033.018-1.705 1.847zm13.442 7.454-1.808 1.96-.584-.636 1.809-1.96.583.636zm-2.497-5.066 1.066 1.162-3.954 4.308-1.066-1.162 3.953-4.308zm-7.905-5.683-.155-.221c-1.243-1.78-1.739-3.54-1.887-5.022.345.155.71.253 1.083.293.52 1.346 1.23 2.707 2.173 3.566l.036.033-1.249 1.352zm1.564-1.694-1.297-3.385c.106-.032.211-.069.314-.113l.083-.04c.015-.007.032-.01.048-.017a3.16 3.16 0 0 0 .499-.284l1.469 2.631-1.115 1.208zm1.492-1.618c.317-2.087 1.253-4.133 1.862-5.295l-.429 3.742-1.433 1.553z" style="fill:var(--color3, #e5beb2)"/></symbol><symbol id="icon-delivery" viewBox="0 0 32 32"><path fill="#e5beb2" d="M4.667 16H16v2H4.667v-2zm-1.889-5h9.444v2H2.778v-2z" style="fill:var(--color3, #e5beb2)"/><path fill="#e5beb2" d="m29.146 16.606-2.833-7c-.073-.18-.194-.333-.348-.441S25.63 9 25.445 9h-2.833V7c0-.265-.1-.52-.277-.707S21.918 6 21.667 6H6.556v2h14.167v12.556c-.43.265-.807.617-1.108 1.036s-.521.898-.647 1.408h-5.935c-.23-.943-.777-1.764-1.538-2.311s-1.684-.78-2.596-.658-1.751.593-2.359 1.324c-.608.73-.943 1.671-.943 2.644s.335 1.914.943 2.644c.608.731 1.446 1.201 2.359 1.324s1.835-.111 2.596-.658a4.004 4.004 0 0 0 1.538-2.311h5.935c.205.858.675 1.619 1.335 2.163s1.472.839 2.308.839c.836 0 1.648-.295 2.308-.839s1.13-1.305 1.335-2.163h2.023c.25 0 .491-.105.668-.293s.277-.442.277-.707v-7c0-.135-.026-.27-.076-.394zM9.389 26c-.374 0-.739-.117-1.049-.337s-.553-.532-.696-.898c-.143-.365-.18-.768-.107-1.156s.253-.744.517-1.024.601-.47.967-.547.746-.038 1.091.114c.345.151.64.408.848.737s.318.716.318 1.111c0 .53-.2 1.039-.554 1.414S9.89 26 9.389 26zm13.222-15h2.21l2.025 5h-4.235v-5zm0 15c-.374 0-.739-.117-1.049-.337s-.553-.532-.696-.898c-.143-.365-.18-.768-.108-1.156s.253-.744.517-1.024.601-.47.967-.547.746-.038 1.091.114c.345.151.64.408.848.737s.318.716.318 1.111c-.001.53-.2 1.039-.554 1.414S23.111 26 22.61 26zm4.722-3h-1.079c-.208-.857-.679-1.616-1.338-2.159s-1.47-.839-2.306-.841v-2h4.722v5z" style="fill:var(--color3, #e5beb2)"/></symbol><symbol id="icon-fb" viewBox="0 0 32 32"><path fill="#446883" d="M21.312 5.312h3.008V.224A41.953 41.953 0 0 0 19.936 0c-4.352 0-7.328 2.656-7.328 7.52v4.192H7.696v5.696h4.912V32h5.888V17.408h4.896l.736-5.696h-5.632V8.08c0-1.68.448-2.768 2.816-2.768z" style="fill:var(--color4, #446883)"/></symbol><symbol id="icon-game-icons_flowers" viewBox="0 0 32 32"><path fill="#e5beb2" d="M5.916 1.052c-1.73.024-3.152 1.588-2.521 4.389l2.379.716c.231-1.044 1.183-1.695 2.086-1.871l.112-2.529c-.661-.485-1.384-.714-2.057-.705zm5.173.112c-.602-.006-1.287.226-2.019.766l-.106 2.376a2.836 2.836 0 0 1 1.972 1.757l1.913-.741c.874-2.235-.077-4.141-1.759-4.159zm13.594.067c-.573-.006-1.151.309-.962.975.354 1.259 1.399 1.046 1.83-.021.248-.62-.301-.948-.874-.953l.006-.001zm-6.629.353c-.732-.009-1.428.744-.761 2.222-2.019-.044-1.257 2.926.26 2.094-.791 2.588 2.402 2.994 1.977.308 1.907 1.268 2.768-.759.868-1.708 2.491-.573.437-3.69-1.169-1.495-.006-.946-.602-1.413-1.175-1.42v-.001zm.608 2.45c.372 0 .673.317.673.709s-.301.709-.673.709c-.372 0-.667-.317-.667-.709s.295-.709.667-.709zm8.152.082c-1.027-.007-1.67 1.406.36 2.24-1.08 1.55 1.93 2.962 1.44.337 2.52-.081 1.015-3.546-.472-1.66-.395-.659-.897-.915-1.328-.918zM7.937 5.461c-.903.255-1.419 1.22-1.183 2.164.238.956 1.147 1.512 2.045 1.256.897-.25 1.423-1.219 1.181-2.169-.201-.806-.885-1.328-1.635-1.313a1.926 1.926 0 0 0-.407.062zm5.389.92-2.184.844a3.091 3.091 0 0 1-.732 1.937l1.67 1.8c2.58.219 3.683-3.081 1.245-4.581zm-10.545.088c-2.137 1.831.348 6.556 2.609 5.75l1.387-2.637c-.819-.656-1.143-1.344-1.175-2.263l-2.822-.85zm21.678 1.3c-.885.013-1.877.613-2.745 2l.673 3.081c.089-.006.177 0 .266.006a2.958 2.958 0 0 1 1.971.975L26.95 12.1c.319-2.494-.874-4.294-2.408-4.331h-.083zm4.669 1.756c-1.24.037-1.316 1.163-.455 1.881 1.003.825 1.765-1.919.455-1.881zm-9.758.219c-2.367.025-4.386 2.019-2.562 5.525l2.721.006c.195-1.169.897-1.794 1.777-2.194l-.697-3.169a4.233 4.233 0 0 0-1.24-.169zm-9.857.112a2.829 2.829 0 0 1-1.724.194l-1.307 2.494c2.086 2.65 3.951 1.169 4.595-1L9.513 9.856zm17.59 3.563-1.877 1.394c.283.744.289 1.55.047 2.269l2.125 1.331c3.046-.463 3.276-4.469-.295-4.994zm-4.657.593c-.325 0-.649.088-.95.269-.915.563-1.222 1.781-.697 2.75.531.969 1.682 1.3 2.597.738.915-.556 1.228-1.781.696-2.75-.331-.606-.903-.963-1.511-1.006h-.136zm-16.855.713c-2.048.031-3.412 1.994-1.966 5.1l3.14 1.044c.451-.875 1.254-1.512 2.21-1.706l-.177-3.05c-1.068-.969-2.216-1.406-3.208-1.387zm6.726.175c-.773.012-1.635.431-2.402 1.4l.165 2.837a3.187 3.187 0 0 1 1.972 1.194l2.314-1.387c.891-2.231-.384-4.075-2.048-4.044zm4.309 1.531c-1.818 3.525 1.47 6.019 4.026 5.044l.667-2.506a3.05 3.05 0 0 1-1.47-1.35 3.282 3.282 0 0 1-.378-1.175l-2.845-.012zm8.098 1.663c-.212.269-.472.5-.773.688a2.926 2.926 0 0 1-1.547.425l-.708 2.662c1.983 2.375 5.348.075 5.106-2.475l-2.078-1.3zm-10.082 2.031L12.6 21.344c.336.988.171 2.15-.301 2.962l1.783 1.981c3.99-1.756 2.863-4.681.561-6.163zm-5.058.138c-1.175 0-2.113 1-2.113 2.238 0 1.244.939 2.237 2.113 2.237 1.169 0 2.107-.994 2.107-2.237 0-1.238-.939-2.238-2.107-2.238zm-6.307.668c-2.166 2.394-1.358 7.2 2.597 6.844l1.525-2.781c-.862-.831-1.168-1.925-.988-3.019l-3.134-1.044zm25.142 1.375c-.915.006-2.45 1.444-.815 1.813-.195 2.375 2.898.344 1.358-.875.118-.694-.159-.944-.543-.937zm-7.036 1.525c-.472 0-.962.444-1.145 1.588-1.411-1.919-3.435.287-1.21 1.675-2.81 1.525.153 3.563 1.293 1.719.254 3.094 3.589 1.137 1.718-.675 2.373.413 2.367-2.012.059-1.937.803-1.169.071-2.375-.714-2.369zm-9.822 1.344c-1.068.738-2.125.95-3.235.456l-1.708 3.113c1.277 3.212 7.168 1.694 7.103-1.288l-.053.056-2.107-2.338zm9.232 1.3c.372 0 .667.319.667.706 0 .394-.295.712-.667.712s-.667-.319-.667-.712c0-.387.295-.706.667-.706zm6.381.438c-.72-.025-.956 1.256.378 2.056-1.269 1.8 1.735 3.169 1.405.425 2.166.437.567-2.256-.502-1.294-.46-.844-.927-1.175-1.281-1.188z" style="fill:var(--color3, #e5beb2)"/></symbol><symbol id="icon-instagram" viewBox="0 0 32 32"><path d="M22.406 11.034a1.44 1.44 0 1 0 0-2.88 1.44 1.44 0 0 0 0 2.88zM16 9.838a6.16 6.16 0 0 0-6.044 7.363c.238 1.195.825 2.293 1.686 3.155s1.96 1.449 3.155 1.686a6.163 6.163 0 1 0 1.201-12.206zM16 20a4.004 4.004 0 0 1-3.695-2.469A4 4 0 1 1 16 20z"/><path d="M16 6.162c3.204 0 3.584.012 4.849.07a6.65 6.65 0 0 1 2.228.413 3.978 3.978 0 0 1 2.278 2.278 6.65 6.65 0 0 1 .413 2.228c.058 1.265.07 1.645.07 4.85s-.012 3.583-.07 4.848a6.65 6.65 0 0 1-.413 2.228 3.978 3.978 0 0 1-2.278 2.278 6.65 6.65 0 0 1-2.228.413c-1.265.058-1.645.07-4.849.07s-3.584-.012-4.849-.07a6.65 6.65 0 0 1-2.228-.413 3.978 3.978 0 0 1-2.278-2.278 6.65 6.65 0 0 1-.413-2.228c-.058-1.265-.07-1.645-.07-4.849s.012-3.584.07-4.849a6.65 6.65 0 0 1 .413-2.228 3.978 3.978 0 0 1 2.278-2.278 6.65 6.65 0 0 1 2.228-.413c1.265-.058 1.645-.07 4.849-.07zM16 4c-3.259 0-3.668.014-4.948.072a8.81 8.81 0 0 0-2.912.558 6.146 6.146 0 0 0-3.51 3.51 8.812 8.812 0 0 0-.558 2.913C4.014 12.333 4 12.74 4 16s.014 3.668.072 4.948c.02.995.209 1.98.558 2.912a6.146 6.146 0 0 0 3.51 3.51 8.812 8.812 0 0 0 2.913.558c1.28.058 1.688.072 4.947.072s3.668-.014 4.948-.072a8.812 8.812 0 0 0 2.913-.558 6.146 6.146 0 0 0 3.51-3.51 8.82 8.82 0 0 0 .557-2.913C27.986 19.667 28 19.26 28 16s-.014-3.668-.072-4.948a8.81 8.81 0 0 0-.558-2.912 6.146 6.146 0 0 0-3.51-3.51 8.82 8.82 0 0 0-2.913-.557C19.667 4.013 19.26 4 16 4z"/></symbol><symbol id="icon-master-card" viewBox="0 0 32 32"><path fill="#f3be7f" d="M20.364 24.971a8.976 8.976 0 0 1-8.289-5.536A8.972 8.972 0 1 1 29.333 16v.001a8.977 8.977 0 0 1-8.97 8.971z" opacity=".5" style="fill:var(--color5, #f3be7f)"/><path fill="#e97d7d" d="M11.636 24.971A8.97 8.97 0 0 1 5.293 9.657a8.976 8.976 0 0 1 9.776-1.944 8.975 8.975 0 0 1 5.538 8.288 8.98 8.98 0 0 1-8.97 8.971z" style="fill:var(--color6, #e97d7d)"/></symbol><symbol id="icon-menu" viewBox="0 0 32 32"><path fill="none" stroke="#446883" stroke-width="2.182" d="M1.455 7.636h29.091M6.53 14.909l24-.346M1.455 22.182h29.091" style="stroke:var(--color4, #446883)"/></symbol><symbol id="icon-phone" viewBox="0 0 32 32"><path fill="none" stroke="#446883" stroke-linejoin="round" stroke-width="1.6" d="M1.905 1.867c0-.349.103-.591.285-.784a.86.86 0 0 1 .676-.282H9.66c.191 0 .356.058.524.204a.786.786 0 0 1 .276.525l.005.031 1.088 6.206c.044.336.034.617-.014.851-.039.189-.126.36-.28.523l-.006.006-4.026 4.356a.8.8 0 0 0-.113.929c1.209 2.196 2.717 4.25 4.523 6.163s3.799 3.57 5.98 4.969a.8.8 0 0 0 1.014-.124l3.942-4.178c.146-.155.353-.29.653-.388.289-.095.555-.118.805-.084l5.755 1.237c.215.05.378.152.515.322a.88.88 0 0 1 .2.586v7.2c0 .349-.103.591-.285.784a.86.86 0 0 1-.676.282c-3.476 0-6.871-.82-10.192-2.473-3.341-1.662-6.298-3.857-8.875-6.588s-4.653-5.87-6.225-9.419C2.683 9.189 1.905 5.573 1.906 1.868z" style="stroke:var(--color4, #446883)"/></symbol><symbol id="icon-ppal" viewBox="0 0 32 32"><path fill="#3173eb" d="M10.351 16.157c0 .872-.539 1.535-1.222 1.535-.511 0-.889-.372-.889-1.071 0-.872.528-1.571 1.206-1.571.517 0 .905.408.905 1.107zm-5.878-3.464h-.261c-.083 0-.167.072-.178.193l-.239 1.908.456-.022c.611 0 1.083-.107 1.194-1.014.128-.958-.344-1.065-.972-1.065zm15.777 0H20c-.1 0-.167.072-.178.193l-.233 1.908.444-.022c.722 0 1.222-.215 1.222-1.286-.006-.757-.532-.793-1.005-.793zM32 3.429v25.142c0 .909-.281 1.781-.781 2.424S30.041 31.999 29.333 32H2.667c-.707 0-1.385-.362-1.885-1.005S.001 29.48.001 28.571V3.429c0-.909.281-1.781.781-2.424S1.96.001 2.667 0h26.666c.707 0 1.385.362 1.886 1.005S32 2.52 32 3.429zM7.129 13.1c0-1.5-.9-2-1.928-2H2.979c-.072.001-.141.035-.194.097s-.087.147-.095.238l-.911 7.292c-.017.143.067.285.178.285h1.056c.15 0 .289-.207.306-.408l.25-1.9c.056-.514.733-.336 1-.336 1.589 0 2.561-1.214 2.561-3.271l-.001.001zm4.678.628h-1.056c-.211 0-.222.393-.233.586-.322-.607-.789-.715-1.317-.715-1.361 0-2.4 1.535-2.4 3.228 0 1.392.678 2.3 1.761 2.3.5 0 1.122-.35 1.472-.85a2.418 2.418 0 0 0-.056.444c0 .165.056.285.178.285h.956c.15 0 .278-.207.306-.408l.567-4.592c.017-.136-.067-.279-.178-.279zm2.25 6.993 3.539-6.615c.028-.036.028-.072.028-.121 0-.121-.083-.249-.178-.249h-1.067c-.05.002-.098.02-.142.051s-.081.075-.108.128l-1.472 2.786-.611-2.678c-.023-.081-.064-.152-.119-.203s-.12-.08-.187-.082h-1.039c-.095 0-.178.129-.178.249 0 .086 1.083 4.058 1.178 4.436-.15.271-1.139 2.043-1.139 2.258 0 .129.083.229.178.229h1.067c.05-.004.098-.023.142-.055s.08-.077.108-.13v-.003zm8.849-7.621c0-1.5-.9-2-1.928-2h-2.206c-.074-.001-.145.033-.202.094s-.093.147-.104.241l-.9 7.286c-.011.143.072.285.178.285h1.139c.111 0 .194-.107.222-.229l.25-2.071c.056-.514.734-.336 1-.336 1.578 0 2.551-1.214 2.551-3.271zm4.677.628h-1.056c-.211 0-.222.393-.239.586-.306-.607-.778-.715-1.317-.715-1.361 0-2.4 1.535-2.4 3.228 0 1.392.678 2.3 1.761 2.3.517 0 1.139-.35 1.472-.85-.017.107-.056.336-.056.444 0 .165.056.285.178.285h.961c.15 0 .278-.207.306-.408l.567-4.592c.017-.136-.066-.279-.177-.279zm2.639-2.378c0-.143-.083-.249-.178-.249h-1.028c-.083 0-.167.086-.178.193l-.9 7.429-.016.036c0 .129.083.249.194.249h.917c.139 0 .278-.207.289-.408l.9-7.228v-.022zm-5 3.7c-.678 0-1.206.693-1.206 1.571 0 .693.389 1.071.9 1.071.667 0 1.206-.657 1.206-1.535.006-.699-.383-1.107-.9-1.107z" opacity=".8" style="fill:var(--color1, #3173eb)"/></symbol><symbol id="icon-search" viewBox="0 0 32 32"><path fill="none" stroke="#446883" stroke-linejoin="round" stroke-width="1.524" d="M23.966 12.698c0 6.635-5.065 11.937-11.221 11.937S1.524 19.333 1.524 12.698 6.589.761 12.745.761s11.221 5.302 11.221 11.937z" style="stroke:var(--color4, #446883)"/><path fill="#446883" d="M29.036 31.064c.309.286.776.255 1.044-.07s.235-.819-.074-1.106l-.97 1.175zm-9.587-8.889 9.586 8.889.97-1.175L20.419 21l-.97 1.175z" style="fill:var(--color4, #446883)"/></symbol><symbol id="icon-twit" viewBox="0 0 32 32"><path fill="#73dafb" d="M32 6.08a13.562 13.562 0 0 1-3.776 1.024 6.608 6.608 0 0 0 2.896-3.632 13.144 13.144 0 0 1-4.176 1.6 6.558 6.558 0 0 0-10.808 1.761 6.554 6.554 0 0 0-.392 4.223 18.615 18.615 0 0 1-13.52-6.864 6.656 6.656 0 0 0-.88 3.312 6.547 6.547 0 0 0 2.912 5.456 6.473 6.473 0 0 1-2.976-.816v.08a6.562 6.562 0 0 0 5.28 6.4 6.287 6.287 0 0 1-1.76.272 7.827 7.827 0 0 1-1.232-.112c.422 1.301 1.239 2.437 2.338 3.251s2.423 1.266 3.79 1.293A13.153 13.153 0 0 1 1.6 26.144c-.535.002-1.069-.03-1.6-.096a18.518 18.518 0 0 0 10.064 2.96 18.548 18.548 0 0 0 13.288-5.413A18.536 18.536 0 0 0 28.8 10.321v-.848A13.479 13.479 0 0 0 32 6.081z" style="fill:var(--color7, #73dafb)"/></symbol><symbol id="icon-visa" viewBox="0 0 32 32"><path fill="#3173eb" d="M0 0h32v4H0V0zm0 28h32v4H0v-4zm27.087-6.172-.253-1.74h-2.835l-.451 1.726-2.272.006c1.462-4.812 2.545-8.38 3.252-10.696.185-.606.513-.914.996-.91.369.004.973.004 1.811 0l1.756 11.61-2.004.004zm-2.45-4.124h1.827l-.684-4.36-1.143 4.36zM9.996 10.212l2.284.004-3.53 11.612-2.313-.002c-.781-4.14-1.356-7.212-1.722-9.21-.112-.614-.335-1.042-.765-1.244a60.07 60.07 0 0 0-1.913-.838v-.32h3.649c.631 0 .999.42 1.119 1.28l.902 6.578 2.289-7.86zm5.421.004-1.804 11.61-2.175-.004 1.804-11.61 2.175.004zm4.41-.216c.649 0 1.469.276 1.94.534l-.381 2.408c-.426-.236-1.127-.554-1.716-.54-.858.018-1.388.512-1.388.986 0 .768.919 1.156 1.868 1.998 1.081.96 1.222 1.82 1.209 2.756C21.344 20.084 20.15 22 17.63 22c-1.151-.024-1.565-.156-2.502-.612l.396-2.512c.954.548 1.36.722 2.175.722.749 0 1.391-.414 1.396-1.136.003-.514-.225-.768-1.065-1.404-.839-.634-2.014-1.512-2-3.28.019-2.26 1.583-3.778 3.798-3.778z" opacity=".8" style="fill:var(--color1, #3173eb)"/></symbol><symbol id="icon-you-tube" viewBox="0 0 32 32"><path fill="#b04848" d="m12.8 20.8 8.304-4.8-8.304-4.8v9.6zM31.296 8.272c.208.752.352 1.76.448 3.04.112 1.28.16 2.384.16 3.344L32 16c0 3.504-.256 6.08-.704 7.728-.4 1.44-1.328 2.368-2.768 2.768-.752.208-2.128.352-4.24.448-2.08.112-3.984.16-5.744.16L16 27.2c-6.704 0-10.88-.256-12.528-.704-1.44-.4-2.368-1.328-2.768-2.768-.208-.752-.352-1.76-.448-3.04a38.497 38.497 0 0 1-.16-3.344L0 16c0-3.504.256-6.08.704-7.728.4-1.44 1.328-2.368 2.768-2.768.752-.208 2.128-.352 4.24-.448 2.08-.112 3.984-.16 5.744-.16L16 4.8c6.704 0 10.88.256 12.528.704 1.44.4 2.368 1.328 2.768 2.768z" style="fill:var(--color8, #b04848)"/></symbol>
<symbol id="icon-close-icon" viewBox="0 0 32 32">
<path fill="none" stroke="#446883" style="stroke: var(--color1, #446883)" stroke-linejoin="round" stroke-linecap="round" stroke-miterlimit="4" stroke-width="1.7778" d="M24 8l-16 16"></path>
<path fill="none" stroke="#446883" style="stroke: var(--color1, #446883)" stroke-linejoin="round" stroke-linecap="round" stroke-miterlimit="4" stroke-width="1.7778" d="M8 8l16 16"></path>
</symbol>
</defs></svg>