<svg width="62" height="60" viewBox="0 0 62 60" fill="none" xmlns="http://www.w3.org/2000/svg">
<path opacity="0.5" d="M39.2657 46.8199C35.8907 46.8204 32.5913 45.8344 29.7847 43.9866C26.9782 42.1389 24.7906 39.5122 23.4986 36.439C22.2065 33.3657 21.8681 29.9838 22.526 26.721C23.184 23.4581 24.8088 20.4608 27.1949 18.1082C29.5811 15.7555 32.6215 14.1531 35.9316 13.5036C39.2417 12.8541 42.6728 13.1867 45.7912 14.4593C48.9095 15.7319 51.5749 17.8874 53.4504 20.6532C55.3259 23.4189 56.3272 26.6708 56.3277 29.9974V29.9999C56.323 34.459 54.524 38.7342 51.3254 41.8875C48.1267 45.0408 43.7896 46.8146 39.2657 46.8199Z" fill="#F3BE7F"/>
<path d="M22.6628 46.8199C19.2877 46.8199 15.9885 45.8335 13.1822 43.9853C10.376 42.1371 8.18876 39.5101 6.89718 36.4367C5.60561 33.3632 5.26767 29.9813 5.92611 26.7185C6.58455 23.4558 8.20979 20.4587 10.5963 18.1064C12.9828 15.7541 16.0234 14.1521 19.3336 13.5031C22.6438 12.8541 26.075 13.1872 29.1931 14.4603C32.3112 15.7334 34.9764 17.8892 36.8514 20.6552C38.7265 23.4213 39.7273 26.6733 39.7273 29.9999C39.7226 34.4595 37.9233 38.735 34.7241 41.8884C31.5248 45.0417 27.1871 46.8153 22.6628 46.8199Z" fill="#E97D7D"/>
</svg>
