<svg width="62" height="47" viewBox="0 0 62 47" fill="none" xmlns="http://www.w3.org/2000/svg">
<path d="M20.6741 23.5631C20.6741 24.8344 19.6488 25.8019 18.3495 25.8019C17.3775 25.8019 16.6584 25.26 16.6584 24.24C16.6584 22.9687 17.6628 21.9487 18.9525 21.9487C19.936 21.9487 20.6741 22.5431 20.6741 23.5631ZM9.49258 18.5119H8.99609C8.8382 18.5119 8.67841 18.6169 8.65749 18.7931L8.20285 21.5756L9.07028 21.5437C10.2326 21.5437 11.1304 21.3881 11.3416 20.0644C11.5851 18.6675 10.6872 18.5119 9.49258 18.5119ZM39.5065 18.5119H39.0309C38.8407 18.5119 38.7132 18.6169 38.6923 18.7931L38.2491 21.5756L39.0937 21.5437C40.4671 21.5437 41.4182 21.2306 41.4182 19.6687C41.4068 18.5644 40.4062 18.5119 39.5065 18.5119ZM61.858 5.00062V41.6681C61.8575 42.9942 61.3229 44.2659 60.3715 45.2035C59.4202 46.1412 58.1301 46.6682 56.7847 46.6687H6.0571C4.71172 46.6682 3.42159 46.1412 2.47027 45.2035C1.51894 44.2659 0.984269 42.9942 0.983765 41.6681V5.00062C0.984269 3.67453 1.51894 2.40289 2.47027 1.4652C3.42159 0.527507 4.71172 0.000496944 6.0571 0H56.7847C58.1301 0.000496944 59.4202 0.527507 60.3715 1.4652C61.3229 2.40289 61.8575 3.67453 61.858 5.00062ZM14.545 19.1044C14.545 16.9162 12.833 16.1869 10.8774 16.1869H6.6506C6.51406 16.1879 6.38265 16.2383 6.28131 16.3285C6.17997 16.4187 6.11576 16.5425 6.10085 16.6762L4.36789 27.3112C4.33555 27.5194 4.49534 27.7275 4.70649 27.7275H6.71528C7.00062 27.7275 7.26503 27.4256 7.29737 27.1331L7.77294 24.3619C7.87946 23.6119 9.16729 23.8725 9.6752 23.8725C12.6979 23.8725 14.5469 22.1025 14.5469 19.1025L14.545 19.1044ZM23.4438 20.0212H21.435C21.0336 20.0212 21.0127 20.595 20.9918 20.8762C20.3792 19.9912 19.4909 19.8337 18.4865 19.8337C15.8975 19.8337 13.921 22.0725 13.921 24.5419C13.921 26.5725 15.2108 27.8962 17.2709 27.8962C18.2221 27.8962 19.4053 27.3862 20.0711 26.6569C20.0096 26.8676 19.9738 27.0847 19.9645 27.3037C19.9645 27.5437 20.0711 27.72 20.3031 27.72H22.1217C22.407 27.72 22.6505 27.4181 22.7038 27.1256L23.7824 20.4281C23.8147 20.2294 23.6549 20.0212 23.4438 20.0212ZM27.7239 30.2194L34.456 20.5725C34.5092 20.52 34.5092 20.4675 34.5092 20.3962C34.5092 20.22 34.3513 20.0325 34.1706 20.0325H32.1409C32.0465 20.0362 31.9542 20.0617 31.8716 20.1069C31.789 20.1522 31.7183 20.216 31.6653 20.2931L28.8652 24.3562L27.7029 20.4506C27.6593 20.3318 27.5804 20.2287 27.4767 20.1545C27.3729 20.0803 27.249 20.0384 27.1208 20.0344H25.1444C24.9637 20.0344 24.8058 20.2219 24.8058 20.3981C24.8058 20.5237 26.8659 26.3156 27.0467 26.8669C26.7613 27.2625 24.88 29.8462 24.88 30.1594C24.88 30.3469 25.0379 30.4931 25.2186 30.4931H27.2483C27.3432 30.487 27.4355 30.4594 27.5179 30.4126C27.6004 30.3658 27.6708 30.301 27.7239 30.2231V30.2194ZM44.5589 19.1044C44.5589 16.9162 42.8468 16.1869 40.8913 16.1869H36.6949C36.5544 16.1858 36.4182 16.2346 36.3113 16.3245C36.2043 16.4144 36.1339 16.5393 36.1128 16.6762L34.4008 27.3019C34.3799 27.51 34.5378 27.7181 34.7394 27.7181H36.9061C37.1172 27.7181 37.2751 27.5625 37.3284 27.3844L37.8039 24.3637C37.9105 23.6137 39.2002 23.8744 39.7062 23.8744C42.708 23.8744 44.5589 22.1044 44.5589 19.1044ZM53.4558 20.0212H51.447C51.0456 20.0212 51.0247 20.595 50.9923 20.8762C50.4102 19.9912 49.5124 19.8337 48.487 19.8337C45.8981 19.8337 43.9216 22.0725 43.9216 24.5419C43.9216 26.5725 45.2113 27.8962 47.2715 27.8962C48.255 27.8962 49.4382 27.3862 50.0716 26.6569C50.0393 26.8125 49.9651 27.1462 49.9651 27.3037C49.9651 27.5437 50.0716 27.72 50.3037 27.72H52.1318C52.4171 27.72 52.6606 27.4181 52.7139 27.1256L53.7925 20.4281C53.8248 20.2294 53.6669 20.0212 53.4558 20.0212ZM58.4758 16.5525C58.4758 16.3444 58.3179 16.1887 58.1372 16.1887H56.1817C56.0238 16.1887 55.864 16.3144 55.8431 16.47L54.1311 27.3037L54.1006 27.3562C54.1006 27.5437 54.2585 27.72 54.4697 27.72H56.214C56.4784 27.72 56.7429 27.4181 56.7638 27.1256L58.4758 16.5844V16.5525ZM48.9645 21.9487C47.6748 21.9487 46.6704 22.9594 46.6704 24.24C46.6704 25.2506 47.4104 25.8019 48.3824 25.8019C49.6512 25.8019 50.6765 24.8437 50.6765 23.5631C50.688 22.5431 49.948 21.9487 48.9645 21.9487Z" fill="#3173EB" fill-opacity="0.8"/>
</svg>
