<svg width="20" height="20" viewBox="0 0 20 20" fill="none" xmlns="http://www.w3.org/2000/svg">
<path d="M15.7895 8.42105L14.2632 6.94737L15.9474 5.26316H10.5263V3.15789H15.9474L14.3158 1.52632L15.7895 0L20 4.26316L15.7895 8.42105ZM17.8421 20C15.5789 20 13.3726 19.4954 11.2232 18.4863C9.07368 17.4772 7.17018 16.1439 5.51263 14.4863C3.85509 12.8288 2.52175 10.9253 1.51263 8.77579C0.503509 6.62632 -0.000701023 4.42035 7.31502e-07 2.1579C7.31502e-07 1.84211 0.105264 1.57895 0.31579 1.36842C0.526316 1.15789 0.789475 1.05263 1.10526 1.05263H5.36842C5.61404 1.05263 5.83333 1.13158 6.02632 1.28947C6.2193 1.44737 6.33333 1.64912 6.36842 1.89474L7.05263 5.57895C7.08772 5.82456 7.08316 6.04842 7.03895 6.25053C6.99474 6.45263 6.89404 6.63228 6.73684 6.78947L4.21053 9.36842C4.94737 10.6316 5.86842 11.8158 6.97368 12.9211C8.07895 14.0263 9.29825 14.9825 10.6316 15.7895L13.1053 13.3158C13.2632 13.1579 13.4695 13.0396 13.7242 12.9611C13.9789 12.8825 14.2288 12.8604 14.4737 12.8947L18.1053 13.6316C18.3509 13.6842 18.5526 13.8028 18.7105 13.9874C18.8684 14.1719 18.9474 14.3867 18.9474 14.6316V18.8947C18.9474 19.2105 18.8421 19.4737 18.6316 19.6842C18.4211 19.8947 18.1579 20 17.8421 20Z" fill="#446883"/>
</svg>
