<svg width="57" height="40" viewBox="0 0 57 40" fill="none" xmlns="http://www.w3.org/2000/svg">
<path d="M0.292389 0H56.0921V5H0.292389V0ZM0.292389 35H56.0921V40H0.292389V35ZM47.5243 27.285L47.083 25.11H42.1396L41.3533 27.2675L37.3916 27.275C39.9406 21.26 41.8302 16.8 43.0628 13.905C43.385 13.1475 43.9582 12.7625 44.8002 12.7675C45.4445 12.7725 46.4971 12.7725 47.958 12.7675L51.0194 27.28L47.5243 27.2875V27.285ZM43.2531 22.13H46.4387L45.2466 16.68L43.2531 22.13ZM17.7222 12.765L21.7042 12.77L15.5485 27.285L11.5157 27.2825C10.1537 22.1075 9.15186 18.2675 8.5127 15.77C8.3174 15.0025 7.92934 14.4675 7.17858 14.215C6.51152 13.99 5.4006 13.64 3.84328 13.1675V12.7675H10.207C11.3078 12.7675 11.9494 13.2925 12.1574 14.3675L13.73 22.59L17.7222 12.765ZM27.1751 12.77L24.0301 27.2825L20.2382 27.2775L23.3833 12.765L27.1751 12.77ZM34.8654 12.5C35.9966 12.5 37.4271 12.845 38.2488 13.1675L37.5843 16.1775C36.8412 15.8825 35.6187 15.485 34.5914 15.5025C33.095 15.525 32.1718 16.1425 32.1718 16.735C32.1718 17.695 33.7747 18.18 35.4284 19.2325C37.3129 20.4325 37.559 21.5075 37.5361 22.6775C37.5108 25.105 35.4284 27.5 31.0329 27.5C29.0267 27.47 28.3038 27.305 26.6704 26.735L27.3603 23.595C29.0241 24.28 29.7318 24.4975 31.1521 24.4975C32.4584 24.4975 33.5769 23.98 33.587 23.0775C33.5921 22.435 33.1939 22.1175 31.7304 21.3225C30.267 20.53 28.2176 19.4325 28.243 17.2225C28.2759 14.3975 31.0025 12.5 34.8654 12.5Z" fill="#3173EB" fill-opacity="0.8"/>
</svg>
